<?xml version="1.0" encoding="UTF-8"?>
<svg width="32px" height="22px" viewBox="0 0 32 22" version="1.1" xmlns="http://www.w3.org/2000/svg" xmlns:xlink="http://www.w3.org/1999/xlink">
    <!-- Generator: Sketch 52.6 (67491) - http://www.bohemiancoding.com/sketch -->
    <title>logo_mastercard</title>
    <desc>Created with Sketch.</desc>
    <defs>
        <polygon id="path-1" points="5.1159077e-13 22.0324484 31.9896469 22.0324484 31.9896469 0.0284788062 5.1159077e-13 0.0284788062"></polygon>
    </defs>
    <g id="Setup-Payment-1920" stroke="none" stroke-width="1" fill="none" fill-rule="evenodd">
        <g id="Setup_payment_noWallet_new_user" transform="translate(-1098.000000, -445.000000)">
            <g id="logo_mastercard" transform="translate(1098.000000, 444.967552)">
                <polygon id="Fill-1" fill="#FFFFFF" points="0 22.0324484 32 22.0324484 32 0.0324483776 0 0.0324483776"></polygon>
                <g id="Group-9">
                    <path d="M8.79057191,19.5901997 C8.81105575,19.2469327 9.1091609,18.9850678 9.45629651,19.0053107 C9.80343212,19.0257689 10.0684145,19.3201515 10.0479306,19.6634185 C10.0285364,19.990965 9.75461958,20.2474461 9.42251998,20.2491689 C9.07712767,20.2558447 8.79166148,19.9845045 8.78512408,19.6431757 C8.78468826,19.625517 8.78512408,19.6078584 8.78621365,19.5901997 L8.79057191,19.5901997 Z M10.4772195,19.5901997 L10.4772195,18.5608295 L10.0239602,18.5608295 L10.0239602,18.8106348 C9.86771649,18.6118673 9.62452544,18.4998856 9.37022083,18.5089303 C8.76856269,18.5089303 8.2806552,18.9910976 8.2806552,19.5856774 C8.2806552,20.1804725 8.76856269,20.6624244 9.37022083,20.6624244 C9.62452544,20.6716845 9.86771649,20.5597028 10.0239602,20.3609353 L10.0239602,20.6107406 L10.4772195,20.6107406 L10.4772195,19.5901997 Z M25.7812583,19.5901997 C25.8017422,19.2469327 26.0998473,18.9850678 26.4469829,19.0053107 C26.7941185,19.0257689 27.0591009,19.3201515 27.0386171,19.6634185 C27.0190049,19.990965 26.7455239,20.2474461 26.4132064,20.2491689 C26.0678141,20.2534759 25.7843091,19.9801975 25.7799509,19.639084 C25.7797329,19.6225021 25.7801688,19.6063509 25.7812583,19.5901997 Z M28.1783027,20.4645183 L28.1783027,20.5162022 L28.2262436,20.5162022 C28.2347422,20.5187864 28.2438946,20.5187864 28.2526111,20.5162022 C28.255444,20.5099571 28.255444,20.5028505 28.2526111,20.4968207 C28.255444,20.490791 28.255444,20.4832537 28.2526111,20.4772239 C28.2438946,20.4746398 28.2347422,20.4746398 28.2262436,20.4772239 L28.1783027,20.4645183 Z M28.2262436,20.4279089 C28.2465095,20.4268322 28.2665575,20.432862 28.282901,20.4451369 C28.2966295,20.4561197 28.3038207,20.4731323 28.3025132,20.4903603 C28.3031669,20.5047887 28.2977191,20.5187864 28.2872593,20.5289078 C28.2746203,20.5403213 28.2584947,20.5472125 28.2414975,20.5482893 L28.3046923,20.6193546 L28.2545723,20.6193546 L28.1957358,20.5482893 L28.1761236,20.5482893 L28.1761236,20.6193546 L28.134938,20.6193546 L28.134938,20.4298471 L28.2262436,20.4279089 Z M28.2131688,20.6839594 C28.2347422,20.6841747 28.2565335,20.6798677 28.2763636,20.6712538 C28.2951041,20.6628551 28.3121014,20.6512263 28.3264836,20.6365825 C28.3829231,20.5756386 28.3829231,20.4823923 28.3264836,20.4212331 C28.3121014,20.4068047 28.2951041,20.3949605 28.2763636,20.3867772 C28.2565335,20.3781632 28.2347422,20.3740716 28.2131688,20.3740716 C28.1913775,20.3740716 28.170022,20.3783786 28.149974,20.3867772 C28.1303618,20.3947451 28.1127109,20.4065893 28.0978928,20.4212331 C28.0412354,20.4823923 28.0412354,20.5756386 28.0978928,20.6365825 C28.1127109,20.6514416 28.1303618,20.6630705 28.149974,20.6712538 C28.1719832,20.6805138 28.1959537,20.6850361 28.2197062,20.6839594 L28.2131688,20.6839594 Z M28.2131688,20.3202342 C28.2414975,20.3198035 28.2698262,20.3249719 28.2959758,20.3353087 C28.3210358,20.3454301 28.3439167,20.3598585 28.3635289,20.3781632 C28.3827052,20.3968986 28.3981771,20.4188643 28.4092906,20.4429834 C28.4317357,20.4935905 28.4317357,20.5515195 28.4092906,20.6021266 C28.3981771,20.6264611 28.3827052,20.6482114 28.3635289,20.6669468 C28.3439167,20.6852515 28.3210358,20.6996799 28.2959758,20.7098013 C28.2700441,20.7212148 28.2417154,20.7270293 28.2131688,20.7270293 C28.1288364,20.7263832 28.0525668,20.6779296 28.017047,20.6021266 C27.9950378,20.5513041 27.9950378,20.4938059 28.017047,20.4429834 C28.0281606,20.4188643 28.0438503,20.3968986 28.0628088,20.3781632 C28.0824209,20.3598585 28.1055197,20.3454301 28.1303618,20.3353087 C28.1589084,20.3241105 28.1894163,20.3189421 28.2197062,20.3202342 L28.2131688,20.3202342 Z M27.4570103,19.5901997 L27.4570103,17.7338877 L27.021184,17.7338877 L27.021184,18.8106348 C26.8649403,18.6118673 26.6217493,18.4998856 26.3674446,18.5089303 C25.7655686,18.5089303 25.277879,18.9910976 25.277879,19.5856774 C25.277879,20.1804725 25.7655686,20.6624244 26.3674446,20.6624244 C26.6217493,20.6716845 26.8649403,20.5597028 27.021184,20.3609353 L27.021184,20.6107406 L27.4570103,20.6107406 L27.4570103,19.5901997 Z M16.1015573,18.9096955 C16.3865877,18.9036658 16.6228055,19.1271985 16.628907,19.4088755 L16.628907,19.4090908 L15.5393414,19.4090908 C15.5556849,19.1215994 15.8017088,18.8997895 16.0928408,18.9096955 L16.1015573,18.9096955 Z M16.1015573,18.5089303 C15.4998991,18.5175443 15.0189649,19.0061721 15.0272456,19.6009672 C15.0357442,20.1955469 15.530407,20.6710384 16.1320651,20.6624244 C16.4456421,20.6785757 16.7539892,20.5786535 16.9971802,20.3826856 L16.7792671,20.0510475 C16.6071157,20.1871483 16.3942146,20.2631666 16.1734686,20.2663969 C15.8620708,20.2928848 15.5857569,20.0695675 15.5502371,19.7624792 L17.0974203,19.7624792 L17.0974203,19.5901997 C17.0974203,18.9441515 16.6921019,18.5134526 16.1080947,18.5134526 L16.1015573,18.5089303 Z M21.5711767,19.5856774 C21.5916606,19.2426257 21.8897657,18.9809762 22.2369013,19.001219 C22.5842549,19.0212465 22.8490193,19.3160599 22.8285355,19.6588962 C22.8089233,19.986658 22.5352244,20.2429238 22.2031248,20.2446466 C21.8577325,20.2491689 21.5742275,19.9758905 21.5700872,19.6345617 C21.5698693,19.6184105 21.5703051,19.6020439 21.5711767,19.5856774 Z M23.2580422,19.5856774 L23.2580422,18.5608295 L22.8047829,18.5608295 L22.8047829,18.8106348 C22.6485392,18.6118673 22.4053482,18.4998856 22.1510436,18.5089303 C21.5491675,18.5089303 21.0614779,18.9910976 21.0614779,19.5856774 C21.0614779,20.1804725 21.5491675,20.6624244 22.1510436,20.6624244 C22.4053482,20.6716845 22.6485392,20.5597028 22.8047829,20.3609353 L22.8047829,20.6107406 L23.2580422,20.6107406 L23.2580422,19.5856774 Z M19.0128766,19.5856774 C18.9915212,20.1600143 19.4452163,20.642397 20.0261727,20.6635012 C20.0586417,20.6645779 20.0915466,20.6643626 20.1242336,20.6624244 C20.3964071,20.6762068 20.6637865,20.5887749 20.8738547,20.4171415 L20.6559416,20.0551391 C20.4992621,20.1733659 20.3081523,20.2384014 20.1111588,20.2405549 C19.7428856,20.2110521 19.468533,19.8921196 19.4983871,19.5281791 C19.5247546,19.2051549 19.7842891,18.9486738 20.1111588,18.9224012 C20.3081523,18.9245547 20.4992621,18.9895902 20.6559416,19.107817 L20.8738547,18.7458146 C20.6637865,18.5743965 20.3964071,18.4867493 20.1242336,18.5003163 C19.5439309,18.4680139 19.0466532,18.9064653 19.0139662,19.4799408 C19.012005,19.5124586 19.0115692,19.544761 19.0128766,19.5770634 L19.0128766,19.5856774 Z M24.8529484,18.5089303 C24.6278442,18.5024698 24.4171222,18.6181124 24.3038073,18.8106348 L24.3038073,18.5608295 L23.8549063,18.5608295 L23.8549063,20.6193546 L24.3081656,20.6193546 L24.3081656,19.465297 C24.3081656,19.125045 24.4565644,18.9355375 24.7439919,18.9355375 C24.8409632,18.93403 24.9372808,18.9516887 25.0272789,18.987006 L25.1667433,18.5563072 C25.0632346,18.5196978 24.954278,18.500747 24.8442319,18.5003163 L24.8529484,18.5089303 Z M12.7130082,18.7242797 C12.4565244,18.5735351 12.1614701,18.4990242 11.863147,18.5089303 C11.3357972,18.5089303 10.9914945,18.758951 10.9914945,19.1678995 C10.9914945,19.5040599 11.2442737,19.7107954 11.7106078,19.7751848 L11.9285209,19.8055491 C12.1769419,19.8397897 12.294615,19.9046098 12.294615,20.0208985 C12.294615,20.1800418 12.129001,20.2704885 11.8195644,20.2704885 C11.5707076,20.277595 11.3266449,20.2020074 11.1266006,20.0551391 L10.9086875,20.4040051 C11.1727982,20.5864061 11.4889901,20.6800831 11.8108478,20.6712538 C12.4122881,20.6712538 12.7609491,20.3912995 12.7609491,19.9991482 C12.7609491,19.6072123 12.4863785,19.4480691 12.0331192,19.3832489 L11.8152061,19.3531 C11.6190843,19.3272581 11.4621868,19.2887105 11.4621868,19.1508869 C11.4621868,19.0128479 11.6103678,18.9096955 11.8587887,18.9096955 C12.0884692,18.9122797 12.3135734,18.9730083 12.5125281,19.0860667 L12.7130082,18.7242797 Z M18.5574382,18.5089303 C18.332334,18.5024698 18.121612,18.6181124 18.0082971,18.8106348 L18.0082971,18.5608295 L17.5593961,18.5608295 L17.5593961,20.6193546 L18.0126554,20.6193546 L18.0126554,19.465297 C18.0126554,19.125045 18.1608363,18.9355375 18.4484816,18.9355375 C18.545453,18.93403 18.6417706,18.9516887 18.7317687,18.987006 L18.8712331,18.5563072 C18.7677244,18.5196978 18.6587678,18.500747 18.5487217,18.5003163 L18.5574382,18.5089303 Z M14.6916594,18.5608295 L13.9463965,18.5608295 L13.9463965,17.9361008 L13.4887789,17.9361008 L13.4887789,18.5608295 L13.074744,18.5608295 L13.074744,18.969778 L13.4974954,18.969778 L13.4974954,19.9175308 C13.4974954,20.3953912 13.6849007,20.6798677 14.220967,20.6798677 C14.4212292,20.6802984 14.6175689,20.625169 14.7875411,20.5202938 L14.6567933,20.1369719 C14.5351977,20.2086832 14.3972587,20.2487382 14.2558331,20.2532606 C14.03792,20.2532606 13.955113,20.1154369 13.955113,19.9087015 L13.955113,18.969778 L14.6960176,18.969778 L14.6916594,18.5608295 Z M7.92109854,20.6193546 L7.92109854,19.3272581 C7.95073472,18.9049579 7.6282233,18.5388638 7.20089566,18.5095763 C7.16777286,18.5074228 7.13465007,18.5072075 7.10174519,18.5089303 C6.80843412,18.4901949 6.52797993,18.6303874 6.36955708,18.8752396 C6.22529859,18.6374939 5.96118789,18.4970861 5.68095161,18.5089303 C5.43710682,18.4968707 5.20502934,18.6131594 5.07079485,18.8147265 L5.07079485,18.5608295 L4.61753555,18.5608295 L4.61753555,20.6193546 L5.07515312,20.6193546 L5.07515312,19.486832 C5.03876163,19.2228136 5.22573109,18.9794688 5.49267467,18.9435054 C5.52340042,18.9394138 5.55412617,18.9381217 5.58506983,18.9396291 C5.88578994,18.9396291 6.03832913,19.1336589 6.03832913,19.482525 L6.03832913,20.6279685 L6.4959467,20.6279685 L6.4959467,19.486832 C6.46086268,19.2213061 6.64979336,18.9779613 6.91826233,18.9432901 C6.94746269,18.9396291 6.97666305,18.938337 7.00586341,18.9396291 C7.31530005,18.9396291 7.46348098,19.1336589 7.46348098,19.482525 L7.46348098,20.6279685 L7.92109854,20.6193546 Z" id="Fill-2" fill="#231F20"></path>
                    <mask id="mask-2" fill="white">
                        <use xlink:href="#path-1"></use>
                    </mask>
                    <g id="Clip-5"></g>
                    <polygon id="Fill-4" fill="#FF5F00" mask="url(#mask-2)" points="12.5626917 15.0634473 19.4269552 15.0634473 19.4269552 2.87251681 12.5626917 2.87251681"></polygon>
                    <path d="M12.9984962,8.96910187 C12.9958812,6.58970616 14.1009187,4.34145825 15.9948016,2.87255988 C12.5883837,0.226776948 7.6565738,0.811235265 4.97929313,4.17757735 C2.30223038,7.54391943 2.89342869,12.4179228 6.30006459,15.0634904 C9.14492045,17.2729754 13.1499458,17.2729754 15.9948016,15.0634904 C14.1015724,13.5948073 12.9965349,11.3476362 12.9984962,8.96910187" id="Fill-6" fill="#EB001B" mask="url(#mask-2)"></path>
                    <path d="M28.6883502,8.96910187 C28.6881323,13.250679 25.1758085,16.7214655 20.8432597,16.7214655 C19.0847008,16.7214655 17.3773515,16.1374379 15.9949106,15.0634904 C19.4013286,12.4179228 19.9927448,7.54391943 17.3154641,4.17757735 C16.9293221,3.69217976 16.4860868,3.2539437 15.9949106,2.87255988 C19.4008928,0.2261309 24.3327026,0.80951247 27.010637,4.1756392 C28.0973698,5.54160055 28.6881323,7.22907858 28.6883502,8.96694837 L28.6883502,8.96910187 Z" id="Fill-7" fill="#F79E1B" mask="url(#mask-2)"></path>
                    <path d="M28.7818534,14.4627694 L28.7818534,13.4698616 L28.6633324,13.4698616 L28.5246728,14.1790815 L28.3860132,13.4698616 L28.2800376,13.4698616 L28.2800376,14.4627694 L28.3658745,14.4627694 L28.3658745,13.7180886 L28.49496,14.3634786 L28.5837682,14.3634786 L28.7125236,13.7180886 L28.7125236,14.4698616 L28.7818534,14.4627694 Z M28.0192254,14.4627694 L28.0192254,13.6400744 L28.1743922,13.6400744 L28.1743922,13.4698616 L27.7818534,13.4698616 L27.7818534,13.6400744 L27.9498956,13.6400744 L27.9498956,14.4627694 L28.0192254,14.4627694 Z" id="Fill-8" fill="#F79E1B" mask="url(#mask-2)"></path>
                </g>
            </g>
        </g>
    </g>
</svg>