<?xml version="1.0" encoding="UTF-8"?>
<svg width="23px" height="22px" viewBox="0 0 23 22" version="1.1" xmlns="http://www.w3.org/2000/svg" xmlns:xlink="http://www.w3.org/1999/xlink">
    <!-- Generator: Sketch 52.6 (67491) - http://www.bohemiancoding.com/sketch -->
    <title>logo_amex</title>
    <desc>Created with Sketch.</desc>
    <defs>
        <polygon id="path-1" points="3.5483871e-06 0.0316818047 21.9993648 0.0316818047 21.9993648 22 3.5483871e-06 22"></polygon>
        <polygon id="path-3" points="0 22 22.0883534 22 22.0883534 0.044 0 0.044"></polygon>
    </defs>
    <g id="Setup-Payment-1920" stroke="none" stroke-width="1" fill="none" fill-rule="evenodd">
        <g id="Setup_payment_noWallet_new_user" transform="translate(-1141.000000, -445.000000)">
            <g id="logo_amex" transform="translate(1141.000000, 445.000000)">
                <g id="Group-3">
                    <mask id="mask-2" fill="white">
                        <use xlink:href="#path-1"></use>
                    </mask>
                    <g id="Clip-2"></g>
                    <path d="M4.26878419,11.8867807 L4.26878419,15.3525069 C4.30245839,15.3558016 4.33467774,15.3617179 4.36696806,15.3617179 C5.51767452,15.3622138 6.66841645,15.3617179 7.81915839,15.3632767 C7.88146806,15.3633475 7.92071323,15.3409932 7.9566229,15.2922106 C8.06676484,15.1426744 8.18084548,14.9960432 8.29822613,14.8419369 C8.41464871,14.9937404 8.52890677,15.1367227 8.63574871,15.2849836 C8.67854226,15.3444296 8.72658742,15.3636309 8.79744871,15.3634184 C9.45847774,15.3612928 10.1195423,15.3622847 10.7806068,15.3620367 C10.9001165,15.3620013 10.9026003,15.3592026 10.9028132,15.2372992 C10.9031681,15.047837 10.9027068,14.8584103 10.9031326,14.6689481 C10.9032035,14.6362138 10.9061132,14.6034795 10.9081003,14.5622428 C11.27511,14.5478242 11.6433971,14.6051446 11.9954681,14.4346357 L11.9954681,14.6152412 C11.9954681,14.8352412 11.9948648,15.0552412 11.9958939,15.2752058 C11.9962842,15.3523652 12.0039132,15.3612928 12.0794584,15.3614699 C12.5140648,15.3624973 12.9486358,15.3624973 13.3832068,15.3615407 C13.4614842,15.361399 13.4723068,15.3494602 13.4731584,15.2697147 C13.4746487,15.132932 13.4735842,14.9961494 13.4735842,14.8382879 C13.5401519,14.9185649 13.5943713,14.9831478 13.647739,15.0484747 C13.7154423,15.131267 13.7844584,15.2131382 13.8490035,15.2983395 C13.8861197,15.3473346 13.9302261,15.3687324 13.9906552,15.3626035 C14.0179423,15.3598403 14.0456906,15.3621784 14.0732616,15.3621784 C16.4267294,15.3621784 18.7802326,15.3622493 21.1337003,15.3621076 C21.4326519,15.3620721 21.7159552,15.3031221 21.9705165,15.1376084 C21.9775777,15.1330029 21.9865552,15.1313378 21.9993648,15.1265552 L21.9993648,22.0000142 L0.00387129032,22.0000142 L0.00387129032,10.8404522 C0.0397809677,10.8382203 0.0751583871,10.8342171 0.110535806,10.8341462 C0.376806774,10.8335794 0.643113226,10.8313475 0.909277742,10.8354216 C0.982445484,10.8365552 1.02030677,10.8122879 1.04482613,10.744056 C1.09013903,10.6178306 1.14513903,10.4950415 1.19215516,10.3693475 C1.21117452,10.3184747 1.24012935,10.2999465 1.29438419,10.3011156 C1.44121645,10.304304 1.58822613,10.3042332 1.73505839,10.3012219 C1.7895971,10.3000882 1.81858742,10.3205295 1.83767774,10.3704103 C1.88561645,10.4957147 1.94111323,10.6182557 1.98600032,10.7445874 C2.01076806,10.8143781 2.05065194,10.8435343 2.12240032,10.8341108 C2.13744548,10.8321269 2.15298742,10.8338274 2.16828097,10.8338274 C4.84003903,10.8338274 7.51183258,10.8337565 10.1835906,10.8340045 C10.3602648,10.8340399 10.3352487,10.8312058 10.3363842,10.6782332 C10.3372358,10.5606519 10.3365261,10.4430705 10.3365261,10.3031704 C10.4665745,10.4628032 10.5844874,10.6019948 10.6955874,10.7464651 C10.7450874,10.8109063 10.7994487,10.8359176 10.8814874,10.8355633 C11.5486552,10.8324812 12.2158229,10.8338274 12.8830261,10.8337919 C12.9044229,10.8337919 12.9258552,10.8329417 12.9472874,10.8334377 C12.9972842,10.8344651 13.0187519,10.8109771 13.0177584,10.7606357 C13.0160197,10.6700496 13.0172616,10.5793572 13.0172616,10.4763362 C13.0487713,10.4967066 13.0690326,10.5086454 13.0880874,10.5223201 C13.3483971,10.7088773 13.639081,10.8120754 13.9587906,10.8187002 C14.4295906,10.8285134 14.9006035,10.8280882 15.371439,10.8350673 C15.4382552,10.8360593 15.4707584,10.8097018 15.4929003,10.7505391 C15.5399519,10.6249514 15.5945261,10.5021977 15.6403358,10.3761849 C15.6600294,10.3220174 15.6871745,10.2994151 15.7463616,10.3009739 C15.8901068,10.3047646 16.0341358,10.3054023 16.1778455,10.3007614 C16.2417165,10.2986712 16.2698906,10.324887 16.291039,10.380932 C16.3362455,10.5007098 16.3876971,10.6181494 16.4365939,10.7365456 C16.4764777,10.8331897 16.4764777,10.8336502 16.5834971,10.8337211 C16.8956487,10.8339691 17.2078358,10.8338274 17.5199874,10.8338274 C17.8627616,10.8338274 18.2055358,10.8339691 18.54831,10.8337565 C18.6730358,10.8336857 18.6730358,10.833296 18.6732842,10.7053346 C18.6735681,10.558668 18.6738519,10.4120367 18.6743132,10.26537 C18.6743132,10.263209 18.6768681,10.2610834 18.6829713,10.2514828 C18.7622777,10.3740238 18.839739,10.4934828 18.9169165,10.6131188 C18.9517261,10.6670383 18.9873519,10.7204264 19.0199971,10.7756213 C19.044339,10.8167871 19.0771261,10.8343233 19.1252068,10.8342171 C19.5781584,10.8332605 20.0310745,10.8331897 20.4840616,10.8341108 C20.5419358,10.8342171 20.5700745,10.8123942 20.5648229,10.7526647 C20.5629777,10.7314441 20.564681,10.7099401 20.564681,10.6885424 L20.564681,7.49857778 L20.564681,7.36544412 L19.0500519,7.36544412 L19.0500519,7.92479678 C19.0437003,7.92642641 19.0373842,7.92812689 19.0309971,7.92979195 C18.9785874,7.84930242 18.9260358,7.76888374 18.8737681,7.68828792 C18.8139777,7.59600129 18.7534777,7.50410435 18.6952842,7.41079034 C18.6743132,7.37713494 18.6514616,7.35715427 18.6081713,7.35729597 C18.1368745,7.35857134 17.6655423,7.35814622 17.1942455,7.35860676 C17.1797326,7.35864219 17.1652197,7.36331852 17.1435745,7.36707375 L17.1435745,8.3566132 C17.1379326,8.35799485 17.1323261,8.35934106 17.1266842,8.36072271 C17.0852035,8.26524767 17.043439,8.16991433 17.0023132,8.07426216 C16.9107648,7.86117037 16.8176906,7.64864541 16.7294423,7.43417198 C16.7062713,7.3778789 16.6767842,7.35641031 16.6142971,7.35655201 C15.7482068,7.3587839 14.8820455,7.35283221 14.0160261,7.36129919 C13.6855294,7.36452303 13.3813616,7.47491272 13.1107261,7.66876779 C13.0838294,7.68800451 13.0576423,7.70823317 13.0175455,7.73813333 L13.0175455,7.36466473 C12.9753197,7.36200773 12.9430648,7.35814622 12.9107745,7.35814622 C10.3155197,7.35789823 7.72026484,7.35789823 5.12497452,7.35796908 C5.02746484,7.35796908 5.0273229,7.3582525 4.99595516,7.44742158 C4.92026806,7.66249726 4.8447229,7.8776438 4.76314548,8.1098306 C4.74433903,8.06274847 4.73042935,8.03097069 4.7188971,7.99834267 C4.65183258,7.80873881 4.58434226,7.61924122 4.51937129,7.4288934 C4.50397129,7.38372432 4.48555516,7.35683543 4.43087452,7.35701256 C3.86469387,7.3589256 3.29851323,7.35860676 2.73233258,7.35917359 C2.72339065,7.35917359 2.71444871,7.36246828 2.69237774,7.36675491 C2.67811323,7.47151176 2.68741,7.58048438 2.68584871,7.68867762 C2.68421645,7.80168889 2.68545839,7.91477101 2.68545839,8.02781771 L2.68545839,8.35707375 L2.67573581,8.36054557 C2.61601645,8.22188535 2.55622613,8.08322512 2.49657774,7.94452947 C2.42305516,7.77366634 2.34680032,7.60386602 2.27785516,7.43119614 C2.25425839,7.3721752 2.22154226,7.35633945 2.16121968,7.35665829 C1.73892613,7.35903188 1.31656161,7.35949243 0.894232581,7.35633945 C0.825393871,7.35584348 0.792216452,7.37812689 0.765426129,7.44143446 C0.524135806,8.01141514 0.279332581,8.57994332 0.0353809677,9.14879034 C0.0272551613,9.16777907 0.0171777419,9.18598841 3.5483871e-06,9.22077746 L3.5483871e-06,0.0550318841 C0.0673164516,0.0316148148 21.8325552,0.0216599034 21.9949294,0.044899839 L21.9949294,11.8867807 L21.8804584,11.8867807 L15.1963971,11.8867807 C13.0754906,11.8867807 10.9546197,11.8873829 8.83371323,11.8847968 C8.74120677,11.8846905 8.68248097,11.9104457 8.62914871,11.9871446 C8.53348419,12.124742 8.42540032,12.2538016 8.31571968,12.3951897 C8.25607129,12.3189159 8.20029065,12.2481333 8.14511323,12.1768902 C8.08521645,12.099589 8.02418419,12.0231027 7.96691323,11.9438531 C7.93731968,11.9028998 7.90357452,11.8841237 7.85176806,11.8858242 C7.74783581,11.8892251 7.64369065,11.8867807 7.53965194,11.8867807 L4.39961323,11.8867807 L4.26878419,11.8867807 Z" id="Fill-1" fill="#1271CC" mask="url(#mask-2)"></path>
                </g>
                <path d="M5.70131294,8.48044108 C5.67387848,8.55422171 5.64544899,8.62768108 5.61918724,8.70189004 C5.43091292,9.23395294 5.24217662,9.76590876 5.05628327,10.298864 C5.034819,10.3604371 5.0069581,10.3869225 4.93869178,10.3837456 C4.81029708,10.3777133 4.68126272,10.378213 4.55279694,10.3835672 C4.48623639,10.3863514 4.45638542,10.3633284 4.43442364,10.3002918 C4.23324943,9.72389628 4.02887691,9.14864298 3.82496637,8.5732469 C3.81345243,8.54083625 3.79746084,8.51003186 3.78356592,8.47847788 C3.77560566,8.48044108 3.7676454,8.48240428 3.75968515,8.48436748 L3.75968515,10.3753574 L3.13654618,10.3753574 L3.13654618,7.79556983 C3.16589964,7.79332107 3.19798943,7.78885926 3.23011476,7.78882356 C3.50890148,7.78825245 3.7876882,7.78832384 4.06651045,7.7885737 C4.16402362,7.78868078 4.16437899,7.78900203 4.19625556,7.87998743 C4.3666193,8.36636131 4.53673428,8.85280658 4.70713355,9.33918046 C4.71708388,9.36755763 4.72877551,9.39532798 4.74849847,9.44615702 C4.76967844,9.40300231 4.78456839,9.37922974 4.79359475,9.35342259 C4.91818701,8.9972981 5.04206853,8.64092376 5.16602112,8.28458511 C5.21538183,8.14259221 5.26534666,8.00081347 5.31321482,7.85832084 C5.32700312,7.81730781 5.34207076,7.78768134 5.39374136,7.78800259 C5.70316086,7.78975162 6.0126159,7.78914481 6.3220354,7.78982301 C6.33351381,7.7898587 6.34492114,7.79531997 6.36144578,7.79949623 L6.36144578,10.373073 L5.73596139,10.373073 L5.73596139,8.48465304 C5.72441191,8.48326095 5.71286243,8.48186886 5.70131294,8.48044108" id="Fill-4" fill="#1271CC"></path>
                <path d="M17.5823293,7.7893297 L17.7346862,7.7893297 C17.9297375,7.7893297 18.1248248,7.79161382 18.3198402,7.78804489 C18.3828225,7.78690283 18.4209566,7.8074599 18.4550331,7.86056566 C18.7579157,8.3323433 19.0632399,8.8025506 19.3683128,9.27290065 C19.3925147,9.31016034 19.4201996,9.34520729 19.4462687,9.38125355 L19.4673825,9.37461533 L19.4673825,7.7967174 L20.1004016,7.7967174 L20.1004016,10.3764156 C20.0708854,10.3784499 20.0413691,10.3821259 20.0118529,10.3821973 C19.8105895,10.3827326 19.6092903,10.3799846 19.4081346,10.3839461 C19.3446496,10.3851952 19.307844,10.3648523 19.2736957,10.3113182 C18.9656784,9.82819139 18.6548243,9.34688469 18.3444729,8.8652568 C18.3152081,8.81985993 18.2835733,8.77599771 18.2530875,8.73138601 C18.2458341,8.73317048 18.2385808,8.73499064 18.2313633,8.73673942 L18.2313633,10.375916 L17.5823293,10.375916 L17.5823293,7.7893297 Z" id="Fill-6" fill="#1271CC"></path>
                <path d="M13.102055,13.4756012 C13.3704993,13.4756012 13.627286,13.4814257 13.8836817,13.4736359 C14.0659736,13.4680973 14.1767207,13.2928987 14.1209562,13.1187721 C14.083851,13.0028902 13.9717533,12.9278868 13.8266733,12.9268148 C13.6126074,12.9252783 13.3985414,12.9261716 13.1844755,12.9268148 C13.1581749,12.926922 13.1318742,12.9320675 13.102055,12.9352478 L13.102055,13.4756012 Z M13.0975412,14.9553021 L12.4578313,14.9553021 L12.4578313,12.3721324 C12.4846651,12.3698455 12.5111434,12.365629 12.5375863,12.3655933 C13.0127039,12.3652717 13.487857,12.3613768 13.9629391,12.3670941 C14.2191927,12.3701671 14.4415397,12.4641805 14.6074115,12.6684657 C14.7089889,12.7935667 14.760986,12.9394642 14.7722526,13.1006913 C14.7856872,13.2924699 14.7616257,13.4759586 14.6552503,13.6408303 C14.5456405,13.810669 14.3900402,13.9191542 14.1993606,13.9792927 C14.171034,13.9882259 14.1429919,13.9980882 14.0965748,14.0135963 C14.3776007,14.3316552 14.6489594,14.6387083 14.9317269,14.9587325 L14.5809332,14.9587325 C14.4583153,14.9587325 14.3356263,14.9562312 14.2131506,14.9599117 C14.1615089,14.9614482 14.1278157,14.9429385 14.0957218,14.9044184 C13.8929936,14.6612201 13.6771506,14.4279912 13.4890299,14.1739657 C13.3810906,14.0282111 13.2589348,14.0173125 13.0975412,14.0447912 L13.0975412,14.9553021 Z" id="Fill-8" fill="#1271CC"></path>
                <path d="M9.99908361,8.89887938 C10.2712632,8.89887938 10.5351592,8.90911168 10.7978055,8.89538542 C10.9827577,8.8857592 11.0854811,8.7021481 11.0223545,8.53226326 C10.9817222,8.42295226 10.8746785,8.35289482 10.7384637,8.35189654 C10.5173781,8.35029217 10.2962924,8.35121914 10.0752068,8.35178958 C10.0516771,8.35186089 10.0281118,8.35699487 9.99908361,8.36041752 L9.99908361,8.89887938 Z M11.8393574,10.380318 C11.7703039,10.380318 11.7190314,10.380318 11.6677947,10.380318 C11.5139059,10.380318 11.3595173,10.3722961 11.2063784,10.3829563 C11.0933005,10.3908711 11.0199266,10.353935 10.949302,10.2665504 C10.7425341,10.0108853 10.5266257,9.76260028 10.3144306,9.51135611 C10.2650505,9.45292143 10.0787773,9.41231308 10.019614,9.45449015 C10.0010117,9.46775293 9.99419202,9.50729171 9.99397779,9.53492251 C9.99204971,9.7776457 9.99283523,10.0204402 9.99283523,10.2631634 L9.99283523,10.3719752 L9.36546185,10.3719752 L9.36546185,7.80017191 C9.3877775,7.79685621 9.41105719,7.79036743 9.43433688,7.79040308 C9.92667377,7.79090222 10.419332,7.78152557 10.9112404,7.79674925 C11.2677553,7.80776592 11.5850304,8.02161047 11.6666878,8.42077745 C11.7575929,8.86540155 11.5443623,9.27105731 11.0922293,9.40397036 C11.069021,9.41078001 11.0464912,9.41994274 11.0060373,9.4342751 C11.2769315,9.75657499 11.5611437,10.0543102 11.8393574,10.380318 Z" id="Fill-10" fill="#1271CC"></path>
                <path d="M6.84738956,10.384 L6.84738956,7.832 L8.92369478,7.832 L8.92369478,8.37614633 C8.88811126,8.37787782 8.85305726,8.38095209 8.81803857,8.38098743 C8.40706308,8.38134079 7.99612289,8.38109344 7.5851474,8.38127012 C7.47338409,8.38134079 7.47310168,8.38172949 7.47243096,8.49212063 C7.47193675,8.56830606 7.47154843,8.6444915 7.47278397,8.72067693 C7.47324289,8.75004154 7.47839685,8.77933547 7.48206816,8.81555536 L8.88447525,8.81555536 L8.88447525,9.36708701 L7.4864455,9.36708701 C7.48058552,9.40097469 7.47341939,9.42415541 7.47313698,9.44744215 C7.47179554,9.54493547 7.47119542,9.64246414 7.47292518,9.73995746 C7.47430192,9.81790972 7.47853805,9.82186741 7.55754193,9.82218543 C7.77061941,9.82299817 7.9836969,9.82246813 8.19677438,9.82246813 C8.40681597,9.82250346 8.61685756,9.82246813 8.82689914,9.82246813 L8.92252984,9.82246813 L8.92252984,10.384 L6.84738956,10.384 Z" id="Fill-12" fill="#1271CC"></path>
                <path d="M6.76934736,13.3562207 L6.76934736,13.895935 L5.37123673,13.895935 L5.37123673,14.3496427 L6.80321285,14.3496427 L6.80321285,14.916 L4.72690763,14.916 L4.72690763,12.364 L6.80186814,12.364 L6.80186814,12.9082373 L5.36925505,12.9082373 C5.357825,13.0609926 5.36522091,13.2017339 5.36486704,13.3562207 L6.76934736,13.3562207 Z" id="Fill-14" fill="#1271CC"></path>
                <path d="M17.184739,14.3530484 L17.184739,14.916 L15.1084337,14.916 L15.1084337,12.364 L17.182302,12.364 L17.182302,12.9095075 L15.7502772,12.9095075 L15.7502772,13.3568258 C15.9831675,13.3656717 16.2160932,13.3595857 16.4487716,13.360718 C16.6791543,13.3618149 16.909537,13.3609303 17.1459592,13.3609303 L17.1459592,13.8964243 L15.7500653,13.8964243 L15.7500653,14.3530484 L17.184739,14.3530484 Z" id="Fill-16" fill="#1271CC"></path>
                <path d="M1.52395413,8.40055675 L1.49838419,8.402448 C1.38170134,8.69273751 1.26501849,8.9830627 1.14509939,9.28134543 L1.88079525,9.28134543 C1.76052052,8.97835241 1.64586477,8.68795585 1.52395413,8.40055675 M0,10.3707429 C0.0683169021,10.207881 0.134784518,10.0469104 0.203172546,9.88672484 C0.488709458,9.21800629 0.775882277,8.54996574 1.05907202,7.88024804 C1.0873092,7.81341187 1.11931607,7.78636338 1.19353647,7.78807622 C1.41424167,7.79317903 1.63512469,7.79264377 1.85582989,7.78825464 C1.92482249,7.78689864 1.95992337,7.81059283 1.98641795,7.87343239 C2.22618503,8.44170042 2.46840596,9.00889793 2.71012902,9.57634523 C2.81358236,9.81921067 2.9177114,10.0618263 3.02112918,10.3046918 C3.03044674,10.3265304 3.03684811,10.349618 3.04819277,10.3826257 C2.91408395,10.3826257 2.789186,10.3826614 2.66432362,10.3826257 C2.57538006,10.3826257 2.48632982,10.3795568 2.39759964,10.3838032 C2.34549955,10.3862654 2.32074757,10.3656758 2.30278815,10.3188226 C2.25225285,10.1870059 2.19570737,10.0575442 2.14559882,9.92558473 C2.12433203,9.86952514 2.09524133,9.84501022 2.03133427,9.84558116 C1.68484204,9.84886409 1.33827868,9.84850725 0.991786448,9.84583095 C0.933178298,9.84540274 0.904158729,9.86527874 0.883958833,9.91944708 C0.833636909,10.0545468 0.777162552,10.1872913 0.724777962,10.321606 C0.710197051,10.3590742 0.693482348,10.3839103 0.646752307,10.3834107 C0.441339279,10.3813054 0.235855125,10.3823402 0.0304065337,10.3817336 C0.0223692511,10.3816979 0.0143319685,10.3760955 0,10.3707429" id="Fill-18" fill="#1271CC"></path>
                <path d="M15.9732382,8.40213858 C15.9631089,8.40281688 15.9530152,8.40345949 15.9429215,8.40413779 C15.8266306,8.69423689 15.7103042,8.9843717 15.590246,9.28378853 L16.3277263,9.28378853 C16.2064952,8.98237249 16.0898844,8.69223769 15.9732382,8.40213858 M17.4939759,10.3830664 C17.2622116,10.3830664 17.0449481,10.381924 16.8277202,10.3839946 C16.7807702,10.384423 16.7645279,10.3594686 16.7498138,10.3223405 C16.6967152,10.1882152 16.6399204,10.0555178 16.5885278,9.92078562 C16.5681982,9.86744966 16.5393387,9.84570829 16.4803403,9.84613669 C16.1310767,9.8487071 15.7818132,9.8485286 15.4325851,9.84627949 C15.3776384,9.84588679 15.3502361,9.86512915 15.3312216,9.91585901 C15.2806819,10.0509125 15.2255931,10.1842167 15.1719258,10.3180922 C15.1595219,10.3490442 15.1511697,10.3832806 15.1061035,10.3831378 C14.889302,10.3824595 14.6725361,10.3828165 14.4457831,10.3828165 C14.4597508,10.3442246 14.4685295,10.315736 14.4801515,10.2884254 C14.8242971,9.48053185 15.1694024,8.67299533 15.511771,7.8643164 C15.5363299,7.80626802 15.5676062,7.78720416 15.6282751,7.78802526 C15.8580135,7.79102407 16.0878586,7.79091697 16.3175615,7.78806096 C16.3760268,7.78734696 16.4038556,7.80965953 16.4262821,7.8624957 C16.7727379,8.67927855 17.1211485,9.49520459 17.4689193,10.3114519 C17.4770938,10.3306586 17.4827804,10.3509006 17.4939759,10.3830664" id="Fill-20" fill="#1271CC"></path>
                <path d="M19.8755129,14.9594562 L19.8755129,14.3829784 L19.9787351,14.3829784 C20.3943534,14.3829426 20.810007,14.3824063 21.2256252,14.3833002 C21.3176816,14.3835148 21.3856693,14.3444321 21.42576,14.2629057 C21.4658862,14.1813077 21.4557129,14.0999243 21.4010533,14.0281238 C21.3532351,13.9652984 21.2856373,13.9415198 21.2077598,13.9417701 C20.99692,13.9424495 20.7857257,13.9486355 20.5752758,13.9389811 C20.4612422,13.9337248 20.3434158,13.9151668 20.2361526,13.8771569 C19.9824571,13.7872632 19.840243,13.5917428 19.803307,13.3284624 C19.7690296,13.0838831 19.8022082,12.8487079 19.9689517,12.6503269 C20.0929105,12.5028284 20.2542661,12.4209086 20.4388041,12.3850799 C20.5160081,12.3700976 20.5961542,12.3654849 20.6750241,12.3651274 C21.0906424,12.363268 21.506296,12.3642692 21.9219142,12.3642692 L22.0320486,12.3642692 C21.9672866,12.5116604 21.8983064,12.6426033 21.8522605,12.781234 C21.8119216,12.9026655 21.7448201,12.9325943 21.623449,12.9289113 C21.3089615,12.9193642 20.9939779,12.9250853 20.6791715,12.9260865 C20.5575522,12.9265156 20.4753147,12.9811169 20.4423134,13.0780904 C20.4019745,13.1966256 20.4603206,13.3225267 20.5782888,13.3593209 C20.6240156,13.3735523 20.6742443,13.3776644 20.7225588,13.378308 C20.9486409,13.3812758 21.1748649,13.3782722 21.4009115,13.3837431 C21.5501087,13.3873903 21.6894516,13.4336601 21.8131977,13.5188696 C21.9112446,13.5864507 21.9853647,13.676845 22.0261998,13.7901238 C22.111982,14.0281596 22.1119466,14.2666602 22.0074483,14.4985099 C21.8849783,14.7701575 21.6612356,14.9052482 21.3764884,14.9402903 C21.2408321,14.9570247 21.1027653,14.9576326 20.9657265,14.9586695 C20.6387262,14.961101 20.311726,14.9594562 19.9846903,14.9594562 L19.8755129,14.9594562 Z" id="Fill-22" fill="#1271CC"></path>
                <path d="M17.4977929,14.9594565 L17.4977929,14.3832834 L17.6022388,14.3832834 C18.0117294,14.3832476 18.42122,14.383605 18.8307106,14.3830332 C18.9481282,14.3828545 19.0253551,14.3287467 19.0539209,14.2303949 C19.0960963,14.0850114 18.998207,13.9467399 18.8440012,13.9438808 C18.6240161,13.9398066 18.4038183,13.9475976 18.1839749,13.9408073 C17.9659391,13.9340528 17.7606622,13.8839119 17.6017427,13.7157631 C17.4354868,13.5398949 17.3911495,13.3232135 17.4094728,13.0926656 C17.4236139,12.9149748 17.4853884,12.7518651 17.6129067,12.6196333 C17.7678922,12.4589181 17.961438,12.3743613 18.1771347,12.3697153 C18.6475492,12.3596014 19.1183181,12.3659985 19.5889097,12.3659628 C19.6034407,12.3659628 19.6179363,12.3693579 19.642001,12.3723599 C19.6147111,12.4370463 19.5906109,12.495943 19.5650576,12.5541965 C19.5218899,12.6526555 19.4736896,12.749149 19.43559,12.8495379 C19.4118442,12.9121514 19.3755876,12.928734 19.3122183,12.9281622 C18.9821874,12.9251959 18.6521211,12.9261966 18.3220903,12.9275546 C18.2800567,12.9276976 18.2363574,12.932415 18.1963794,12.9447805 C18.0958675,12.9758371 18.0485177,13.0459199 18.0489784,13.1515266 C18.0494392,13.2562756 18.099199,13.3314691 18.1961313,13.3600954 C18.2421344,13.3736403 18.2920005,13.3785007 18.3402363,13.379144 C18.5663174,13.382146 18.7925047,13.3795371 19.0185504,13.3845405 C19.1580125,13.3876497 19.2889687,13.4295707 19.4072368,13.5049428 C19.5990106,13.6271321 19.6790019,13.8151871 19.6985656,14.0330836 C19.7095879,14.1558447 19.6996643,14.2786058 19.6627343,14.3980076 C19.5646323,14.7148277 19.317818,14.9014174 18.9892403,14.9405866 C18.8534641,14.9567404 18.7154196,14.9576338 18.5784029,14.9586702 C18.254468,14.9611004 17.9305331,14.9594565 17.6065981,14.9594565 L17.4977929,14.9594565 Z" id="Fill-24" fill="#1271CC"></path>
                <path d="M10.4977098,13.5211992 C10.5086098,13.5271457 10.5137748,13.5323757 10.5189398,13.5323757 C10.7798624,13.5334146 11.0408205,13.5373908 11.3016362,13.5329489 C11.4085699,13.5311219 11.5051736,13.4421036 11.5360568,13.3389714 C11.6015279,13.1204914 11.4640315,12.9318873 11.2339923,12.9293081 C11.0160284,12.9268363 10.798029,12.9284842 10.5800296,12.9291648 C10.5535989,12.9292364 10.5272039,12.9344307 10.4977098,12.937583 L10.4977098,13.5211992 Z M9.85140562,12.3720213 C9.87904738,12.3697286 9.90006367,12.3665046 9.92107995,12.3665046 C10.4122199,12.3663255 10.9035379,12.3593402 11.3944641,12.3695137 C11.6686375,12.3751736 11.8994961,12.4905571 12.055729,12.7277004 C12.155218,12.8786554 12.1920855,13.0480588 12.1927623,13.2283164 C12.193546,13.4390946 12.1417889,13.6307436 12.0074984,13.7956693 C11.8620942,13.974279 11.6709529,14.0776979 11.445758,14.0932447 C11.1769989,14.1117648 10.9067081,14.1077886 10.6370941,14.1132694 C10.5943848,14.1141291 10.5516754,14.1133769 10.4949314,14.1133769 L10.4949314,14.96 L9.85140562,14.96 L9.85140562,12.3720213 Z" id="Fill-26" fill="#1271CC"></path>
                <path d="M6.89156627,14.9583232 C7.00743669,14.8102242 7.11013285,14.6784497 7.21338961,14.5470681 C7.42677058,14.2755533 7.63913545,14.0031097 7.8551793,13.7337739 C7.89743504,13.681157 7.89992273,13.6467577 7.8566509,13.5922476 C7.5507698,13.2069259 7.24828739,12.8187822 6.94489399,12.4314245 C6.93221026,12.4152429 6.92131346,12.3975967 6.90309374,12.3712347 C6.93837693,12.3689843 6.96398966,12.3660194 6.98956734,12.3659837 C7.18900322,12.3655908 7.38850917,12.3689128 7.58780489,12.3640905 C7.65903699,12.3623402 7.70465637,12.3858803 7.74684204,12.4433552 C7.90605437,12.6602885 8.06936614,12.874114 8.23162678,13.0887253 C8.24928589,13.1120511 8.27006338,13.1329836 8.2958513,13.1624533 C8.40926906,13.0123183 8.51592451,12.8713277 8.62240477,12.7301586 C8.70159048,12.6252105 8.78116161,12.5205482 8.85922611,12.4147428 C8.88249129,12.3832369 8.90736822,12.3647335 8.94913343,12.365055 C9.17267539,12.3668767 9.39628744,12.3659837 9.61989948,12.3664481 C9.62823851,12.3664481 9.63661257,12.3705203 9.65910692,12.3764142 C9.32459984,12.8006003 8.99468273,13.2189996 8.65716239,13.6470435 C8.99464769,14.0791596 9.33052125,14.5092396 9.6746988,14.9499645 C9.64169307,14.9535723 9.61996955,14.957966 9.59824604,14.9580017 C9.39278364,14.9585375 9.18725117,14.9554655 8.98189389,14.9599306 C8.91402542,14.9613952 8.87117404,14.939784 8.8306702,14.884238 C8.6666927,14.6593747 8.49809021,14.4380835 8.33102937,14.2155778 C8.31652367,14.1962528 8.30082668,14.1778565 8.27777173,14.1492441 C8.25335029,14.1763563 8.23029534,14.1982175 8.21147997,14.223365 C8.04480456,14.4461565 7.87760358,14.6686264 7.71362608,14.8934897 C7.67949914,14.9402841 7.64397069,14.9605379 7.58584277,14.9596806 C7.36247599,14.9563585 7.13907417,14.9583232 6.89156627,14.9583232" id="Fill-28" fill="#1271CC"></path>
                <path d="M14.8875502,7.78851281 L14.8875502,8.36434668 C14.8511633,8.36613221 14.8185898,8.36909619 14.7860163,8.36920332 C14.6016942,8.36963185 14.4173721,8.37202446 14.233157,8.36888193 C13.8285537,8.36198977 13.5732042,8.59307324 13.54562,9.02181504 C13.5350354,9.18629819 13.5569887,9.34810304 13.6347518,9.49608788 C13.7400278,9.69653163 13.915654,9.79002205 14.1350087,9.80577044 C14.2226793,9.81209122 14.3112052,9.80684176 14.4091753,9.80684176 C14.4003726,9.83619589 14.3973077,9.85383694 14.3900731,9.86958533 C14.319402,10.0230696 14.2466996,10.175554 14.1778105,10.3298239 C14.1600269,10.3697127 14.1371826,10.3879608 14.0940601,10.3832827 C13.9237083,10.3648203 13.7524656,10.3525359 13.5914511,10.2847214 C13.3203494,10.1705188 13.1204533,9.98139531 13.0184917,9.70503076 C12.8567288,9.26668281 12.8515256,8.82583511 13.055627,8.39841461 C13.2175325,8.05937792 13.5019986,7.86336228 13.8663661,7.81618854 C14.1385725,7.78094216 14.4172652,7.79561922 14.6930712,7.78872707 C14.7539417,7.78722723 14.8148478,7.78851281 14.8875502,7.78851281" id="Fill-30" fill="#1271CC"></path>
                <mask id="mask-4" fill="white">
                    <use xlink:href="#path-3"></use>
                </mask>
                <g id="Clip-33"></g>
                <polygon id="Fill-32" fill="#1271CC" mask="url(#mask-4)" points="11.9277108 10.384 12.5461847 10.384 12.5461847 7.832 11.9277108 7.832"></polygon>
            </g>
        </g>
    </g>
</svg>