<?xml version="1.0" encoding="UTF-8"?>
<svg width="100px" height="27px" viewBox="0 0 100 27" version="1.1" xmlns="http://www.w3.org/2000/svg" xmlns:xlink="http://www.w3.org/1999/xlink">
    <!-- Generator: Sketch 52.6 (67491) - http://www.bohemiancoding.com/sketch -->
    <title>logo_alipay</title>
    <desc>Created with Sketch.</desc>
    <defs>
        <polygon id="path-1" points="0 0.601808108 25.9687278 0.601808108 25.9687278 26.8399703 0 26.8399703"></polygon>
        <polygon id="path-3" points="0.394357143 0.57195 4.39642857 0.57195 4.39642857 2.67345 0.394357143 2.67345"></polygon>
    </defs>
    <g id="Setup-Payment-1920" stroke="none" stroke-width="1" fill="none" fill-rule="evenodd">
        <g id="Setup_payment_noWallet_new_user_china" transform="translate(-1061.000000, -498.000000)">
            <g id="logo_alipay" transform="translate(1061.000000, 498.000000)">
                <g id="Group-3">
                    <mask id="mask-2" fill="white">
                        <use xlink:href="#path-1"></use>
                    </mask>
                    <g id="Clip-2"></g>
                    <path d="M21.8202833,0.601808108 L4.14822778,0.601808108 C1.85445,0.601808108 -0.000216666667,2.47575405 -0.000216666667,4.79337568 L-0.000216666667,22.6148351 C-0.000216666667,24.9660243 1.85445,26.8399703 4.14822778,26.8399703 L21.7863389,26.8399703 C24.1133389,26.8399703 25.9687278,24.9660243 25.9687278,22.6484027 L25.9687278,22.3762135 C25.9687278,22.3762135 19.2571167,19.5477811 15.8511167,17.8781595 C13.5573389,20.6722946 10.6236722,22.4105108 7.58817222,22.4105108 C2.42789444,22.4105108 0.674338889,17.8438622 3.10245,14.8454027 C3.64267222,14.1981324 4.55267222,13.5508622 5.93572778,13.2093486 C8.12767222,12.6642405 11.6347833,13.5508622 14.90645,14.6410784 C15.4798944,13.5508622 15.98545,12.3234568 16.3566722,11.0289162 L6.23906111,11.0289162 L6.23906111,10.0065649 L11.4665056,10.0065649 L11.4665056,8.13261892 L5.19400556,8.13261892 L5.19400556,7.11026757 L11.50045,7.11026757 L11.50045,4.45186216 C11.50045,4.45186216 11.50045,4.00891622 11.9388389,4.00891622 L14.5020056,4.00891622 L14.5020056,7.11026757 L20.7412833,7.11026757 L20.7412833,8.13261892 L14.5020056,8.13261892 L14.5020056,10.0065649 L19.5943944,10.0065649 C19.1220611,12.0169703 18.3803389,13.8909162 17.4356722,15.5269703 C18.9877278,16.1063757 20.3700611,16.6171865 21.4151167,16.9922676 C25.1251722,18.2525108 25.9687278,18.3211054 25.9687278,18.3211054 L25.9687278,4.79337568 C25.9687278,2.47575405 24.1133389,0.601808108 21.8202833,0.601808108" id="Fill-1" fill="#00A0E9" mask="url(#mask-2)"></path>
                </g>
                <rect id="Rectangle" x="0" y="0" width="100" height="28"></rect>
                <path d="M2.9773394,15.9627382 C0.917677133,17.7365289 2.15332748,21 6.30720024,21 C8.70940448,21 11.1123438,19.4746159 13,17.0270126 C10.3228801,15.7143315 8.02285039,14.7921123 5.58609792,15.0405189 C4.89954383,15.0762227 3.66389349,15.360333 2.9773394,15.9627382" id="Fill-4" fill="#00A0E9"></path>
                <path d="M36.0625467,10.7496367 L38.9941564,17.1965583 L32.9975199,17.1965583 L36.0625467,10.7496367 Z M40.460318,20.5889484 L43.9919481,20.5889484 L37.3952912,6 L36.4292655,6 C36.2623157,6 36.1288986,6.03342256 35.9961949,6.1351434 C35.8627777,6.23759082 35.7628933,6.33931166 35.695828,6.47445507 L29,20.5889484 L31.365122,20.5889484 L32.5644493,18.2137667 L39.3608752,18.2137667 L40.460318,20.5889484 Z M48.6558402,20.5889484 L45.3239791,20.5889484 L45.3239791,6.61032505 C45.3239791,6.4410325 45.3910444,6.30516252 45.5244615,6.16929254 C45.6578786,6.03342256 45.824115,6 45.9910648,6 L48.6893728,6 L48.6893728,20.5889484 L48.6558402,20.5889484 Z M51.3213291,10.7162141 C51.3213291,10.546195 51.3876809,10.410325 51.521098,10.2744551 C51.6545152,10.1393117 51.8207515,10.1051625 51.9877013,10.1051625 L54.6867228,10.1051625 L54.6867228,20.9624092 L51.3548617,20.9624092 L51.3548617,10.7162141 L51.3213291,10.7162141 Z M60.6498267,17.9761759 C60.6498267,18.2479159 60.6833594,18.4855067 60.7832439,18.7230975 C60.8831284,18.9606883 61.0165455,19.16413 61.1827818,19.3334226 C61.3497316,19.5034417 61.5830332,19.6385851 61.8156214,19.7410325 C62.048923,19.8427533 62.3492899,19.8769025 62.6154107,19.8769025 C62.882245,19.8769025 63.1483658,19.7744551 63.3816675,19.6051625 C63.6149691,19.4017208 63.8482707,19.16413 64.014507,18.8248184 C64.1814568,18.4855067 64.3484066,18.0778967 64.4482911,17.6034417 C64.5474621,17.12826 64.6145274,16.6196558 64.6145274,16.0769025 C64.6145274,15.36413 64.5809948,14.7530784 64.4811103,14.210325 C64.3812258,13.6675717 64.2478087,13.2265392 64.0815723,12.853805 C63.9146225,12.4803442 63.7148536,12.2086042 63.4815519,12.0385851 C63.2482503,11.8692925 62.9821295,11.7675717 62.7152952,11.7675717 C62.5155263,11.7675717 62.3157573,11.8017208 62.1159883,11.8692925 C61.9155059,11.9375908 61.7492696,12.0385851 61.5830332,12.1744551 C61.4160834,12.310325 61.2498471,12.446195 61.0828973,12.6154876 C60.9159475,12.7855067 60.7832439,12.9547992 60.6498267,13.1582409 L60.6498267,17.9761759 Z M57.3179656,10.5803442 C57.3179656,10.410325 57.3850309,10.2410325 57.4849154,10.1393117 C57.6183325,10.0034417 57.7510362,9.9351434 57.917986,9.9351434 L60.5164096,9.9351434 L60.5164096,10.7837859 C60.8831284,10.4778967 61.316199,10.2068834 61.7828022,10.0034417 C62.2494054,9.8 62.8151797,9.69827916 63.4487328,9.69827916 C64.1143915,9.69827916 64.7479446,9.83342256 65.2808996,10.1051625 C65.8473874,10.3761759 66.3132772,10.7496367 66.7135286,11.1906692 C67.1130665,11.6658509 67.41272,12.2086042 67.6132024,12.8196558 C67.8129714,13.4299809 67.9456751,14.0751816 67.9456751,14.7872275 C67.9456751,15.6692925 67.8129714,16.4837859 67.5796698,17.2299809 C67.3128355,17.9761759 66.9796494,18.6206501 66.4802269,19.16413 C66.0136237,19.7068834 65.4478494,20.1479159 64.7807637,20.4530784 C64.1143915,20.7589675 63.3488483,20.92826 62.5155263,20.92826 C62.0824557,20.92826 61.7164504,20.92826 61.4160834,20.8941109 C61.11643,20.8606883 60.8160631,20.7923901 60.5164096,20.6572467 L60.5164096,25 L57.3179656,25 L57.3179656,10.5803442 Z M71.9774411,17.2299809 C71.9774411,15.9410325 72.9434667,14.9572467 74.142794,14.8547992 C74.9090508,14.7872275 75.375654,14.9572467 75.6424883,15.1265392 L75.6424883,18.9606883 C75.2422369,19.3675717 74.7428144,19.6051625 74.142794,19.6051625 C72.9434667,19.5710134 71.9774411,18.5196558 71.9774411,17.2299809 Z M76.507916,10.0710134 C74.9761161,9.62998088 73.010532,9.52826004 70.3450431,10.2410325 C70.4449276,10.5120459 70.5448121,10.9872275 70.6446966,11.2589675 C74.8755181,10.5120459 75.6753075,11.0889484 75.6753075,12.9547992 L75.6753075,13.5317017 C74.9090508,13.46413 73.9765577,13.3624092 73.2431202,13.32826 C70.3450431,13.2941109 69.3119522,15.6017208 69.3119522,17.0941109 C69.3119522,19.6727342 71.7106068,22.082065 75.6753075,20.2837859 L75.6753075,20.6906692 L78.9736359,20.6906692 L78.9736359,12.853805 C78.9736359,11.3265392 77.6744241,10.410325 76.507916,10.0710134 Z M79.9731943,9.73170172 L83.3714072,9.73170172 L86.7360875,16.4154876 L89.5014609,10.1393117 C89.5685262,10.0034417 89.634878,9.90172084 89.7682952,9.83342256 C89.9009988,9.76585086 90.034416,9.73170172 90.1678331,9.73170172 L92,9.73170172 L86.6697357,21.810325 C85.3705239,25.1017208 82.2719644,24.6265392 81.7054767,24.6265392 L81.7054767,22.7941109 C82.1385473,22.7941109 83.5711762,22.82826 84.2047292,22.082065 C84.3374329,21.9120459 84.5036692,21.6068834 84.5707345,21.4034417 C84.670619,21.2 84.7376843,21.0299809 84.8375688,20.8606883 L85.2035741,19.9786233 L79.9731943,9.73170172 Z" id="Fill-6" fill="#3E3A39"></path>
                <path d="M55,6.49964311 C55,7.33261956 54.3401157,8 53.4996787,8 C52.6598843,8 52,7.33261956 52,6.49964311 C52,5.66666667 52.6598843,5 53.4996787,5 C54.3401157,5 55,5.66666667 55,6.49964311" id="Fill-8" fill="#00A0E9"></path>
                <g id="Group-12" transform="translate(95.000000, 7.000000)">
                    <mask id="mask-4" fill="white">
                        <use xlink:href="#path-3"></use>
                    </mask>
                    <g id="Clip-11"></g>
                    <path d="M0.394357143,0.57195 L0.394357143,0.85245 L1.02792857,0.85245 L1.02792857,2.67345 L1.39507143,2.67345 L1.39507143,0.85245 L2.02864286,0.85245 L2.02864286,0.57195 L0.394357143,0.57195 Z M4.06292857,0.57195 L3.3965,1.86795 L2.72935714,0.57195 L2.39578571,0.57195 L2.39578571,2.67345 L2.72935714,2.67345 L2.72935714,1.27245 L3.26292857,2.28795 L3.52935714,2.28795 L4.06292857,1.27245 L4.06292857,2.67345 L4.39721429,2.67345 L4.39721429,0.57195 L4.06292857,0.57195 Z" id="Fill-10" fill="#3E3A39" mask="url(#mask-4)"></path>
                </g>
            </g>
        </g>
    </g>
</svg>