<?xml version="1.0" encoding="UTF-8"?>
<svg width="34px" height="22px" viewBox="0 0 34 22" version="1.1" xmlns="http://www.w3.org/2000/svg" xmlns:xlink="http://www.w3.org/1999/xlink">
    <!-- Generator: Sketch 52.6 (67491) - http://www.bohemiancoding.com/sketch -->
    <title>logo_visa</title>
    <desc>Created with Sketch.</desc>
    <g id="Setup-Payment-1920" stroke="none" stroke-width="1" fill="none" fill-rule="evenodd">
        <g id="Setup_payment_noWallet_new_user" transform="translate(-1052.000000, -445.000000)">
            <g id="logo_visa" transform="translate(1052.000000, 445.000000)">
                <polygon id="Fill-2" fill="#F8B800" points="0 22 34 22 34 18.8571429 0 18.8571429"></polygon>
                <polygon id="Fill-3" fill="#002D7D" points="0 3.14285714 34 3.14285714 34 0 0 0"></polygon>
                <path d="M17.3847407,7.48140948 L15.5950879,15.5870032 L13.4304634,15.5870032 L15.2202788,7.48140948 L17.3847407,7.48140948 Z M26.4913837,12.7154287 L27.6309336,9.67136117 L28.2864024,12.7154287 L26.4913837,12.7154287 Z M28.9075612,15.5870032 L30.9090909,15.5870032 L29.1604151,7.48140948 L27.3140125,7.48140948 C26.8979012,7.48140948 26.5473205,7.71518076 26.3920308,8.0756044 L23.1439558,15.5870032 L25.4172018,15.5870032 L25.8685988,14.3765595 L28.6452761,14.3765595 L28.9075612,15.5870032 Z M23.2566424,12.9406935 C23.2662362,10.8016233 20.2043462,10.6830048 20.2246721,9.72728355 C20.231339,9.43680226 20.5172021,9.12741763 21.1424261,9.04833866 C21.4525176,9.00958682 22.3076679,8.97839631 23.2772935,9.41112522 L23.6564931,7.69155159 C23.1356628,7.50913438 22.4655593,7.33333333 21.6318732,7.33333333 C19.4919649,7.33333333 17.9865492,8.43445277 17.9745163,10.0125664 C17.9608573,11.1795325 19.0498365,11.8301224 19.8685628,12.2187435 C20.7128184,12.6160286 20.9957546,12.8709086 20.9916894,13.2258188 C20.9858355,13.7696048 20.3183338,14.0103073 19.697175,14.0194439 C18.6080332,14.0358268 17.977118,13.7343186 17.4740119,13.5071635 L17.0811534,15.2840772 C17.5876742,15.5087119 18.5210385,15.7042039 19.4875745,15.7142857 C21.7624466,15.7142857 23.2499755,14.625926 23.2566424,12.9406935 Z M14.2917928,7.48140948 L10.7845222,15.5870032 L8.49664154,15.5870032 L6.77056813,9.11812349 C6.66601182,8.72036575 6.57478929,8.57417994 6.25656737,8.40609776 C5.73606234,8.13215689 4.87668429,7.87601666 4.12121212,7.71659851 L4.17227072,7.48140948 L7.85564471,7.48140948 C8.32476593,7.48140948 8.74689373,7.78386289 8.85421435,8.30732782 L9.76595186,12.9981911 L12.0177337,7.48140948 L14.2917928,7.48140948 Z" id="Fill-4" fill="#002D7D"></path>
            </g>
        </g>
    </g>
</svg>