<?xml version="1.0" encoding="UTF-8"?>
<svg width="100px" height="19px" viewBox="0 0 100 19" version="1.1" xmlns="http://www.w3.org/2000/svg" xmlns:xlink="http://www.w3.org/1999/xlink">
    <!-- Generator: Sketch 52.6 (67491) - http://www.bohemiancoding.com/sketch -->
    <title>logo_wechat</title>
    <desc>Created with Sketch.</desc>
    <g id="Setup-Payment-1920" stroke="none" stroke-width="1" fill="none" fill-rule="evenodd">
        <g id="Setup_payment_noWallet_new_user_china" transform="translate(-1061.000000, -447.000000)">
            <g id="logo_wechat" transform="translate(1061.000000, 442.000000)">
                <rect id="Rectangle" x="0" y="0" width="100" height="28"></rect>
                <path d="M7.58723404,16.6429179 C7.49300912,16.6906383 7.38693009,16.7179939 7.27416413,16.7179939 C7.01367781,16.7179939 6.78693009,16.5742249 6.66778116,16.3620669 L6.62218845,16.2623708 L4.72340426,12.0955015 C4.70273556,12.0499088 4.6899696,11.998845 4.6899696,11.948997 C4.6899696,11.7568997 4.84559271,11.6012766 5.03768997,11.6012766 C5.11580547,11.6012766 5.18784195,11.6271125 5.24589666,11.6702736 L7.48662614,13.2657143 C7.65045593,13.3730091 7.84589666,13.4356231 8.056231,13.4356231 C8.18176292,13.4356231 8.30151976,13.4122188 8.41306991,13.3714894 L18.9513678,8.68121581 C17.06231,6.45477204 13.9513678,5.00006079 10.4306991,5.00006079 C4.66990881,5.00006079 0,8.8918541 0,13.692462 C0,16.3119149 1.40516717,18.6693617 3.60425532,20.2629787 C3.78085106,20.3891185 3.89604863,20.5958055 3.89604863,20.8292401 C3.89604863,20.9064438 3.87963526,20.9772644 3.85957447,21.0508207 C3.68389058,21.7061398 3.40243161,22.7553799 3.3893617,22.8043161 C3.36778116,22.8866869 3.33343465,22.9724012 3.33343465,23.0584195 C3.33343465,23.2505167 3.48905775,23.4061398 3.68115502,23.4061398 C3.75653495,23.4061398 3.81823708,23.3781763 3.88206687,23.3417021 L6.1656535,22.0231611 C6.33738602,21.9240729 6.51914894,21.8626748 6.71945289,21.8626748 C6.82613982,21.8626748 6.92887538,21.8790881 7.02613982,21.9085714 C8.09148936,22.2152584 9.24072948,22.3854711 10.4306991,22.3854711 C16.1914894,22.3854711 20.8617021,18.4933739 20.8617021,13.692462 C20.8617021,12.2383587 20.431003,10.8690578 19.6738602,9.66449848 L7.66352584,16.598845 L7.58723404,16.6429179 Z" id="Fill-1" fill="#1AAD19"></path>
                <path d="M36.4581763,14.6216717 C36.3821884,14.8940122 36.3074164,15.1587538 36.2344681,15.4168085 C35.9499696,16.4222796 35.7010334,17.3025228 35.5077204,18.1873252 C35.3174468,17.1259271 34.991307,15.8791185 34.6451064,14.5897568 L32.985228,8.33018237 L32.1247416,8.33018237 L30.2992097,14.6362614 C29.8818845,15.9967477 29.5180547,17.2125532 29.3229179,18.1973556 C29.1378116,17.3402128 28.8742857,16.301307 28.5967781,15.2067781 L26.8259574,8.33018237 L25.878845,8.33018237 L28.8460182,19.5657447 L29.6894833,19.5657447 L31.59769,13.1274468 C32.0533131,11.6237994 32.3481459,10.5870213 32.5323404,9.6581459 C32.6937386,10.6529787 32.9578723,11.7049544 33.3454103,13.1250152 L35.0217021,19.5657447 L35.8818845,19.5657447 L39.2493617,8.33018237 L38.3007295,8.33018237 L36.4581763,14.6216717 Z" id="Fill-3" fill="#4D4D4D"></path>
                <path d="M42.7509119,12.1381155 C43.4047112,12.1381155 43.9332827,12.3378116 44.3211246,12.7317325 C44.9530395,13.372766 45.0369301,14.3259574 45.0387538,14.7697264 L40.1764438,14.7697264 C40.349696,13.5384195 41.1196049,12.1381155 42.7509119,12.1381155 Z M45.162766,18.5192705 C44.7025836,18.7320365 44.1196049,18.9201824 43.0800912,18.9201824 C41.2272036,18.9201824 40.156383,17.6858359 40.1344985,15.5308207 L45.9506079,15.5308207 L45.962462,15.4779331 C45.9971125,15.32231 45.9971125,15.2028571 45.9971125,14.9855319 C45.9971125,14.6870517 45.9551672,13.6426748 45.4171733,12.7381155 C44.8673252,11.8131915 44.0034954,11.3444985 42.8493921,11.3444985 C40.6816109,11.3444985 39.225076,13.0922188 39.225076,15.6937386 C39.225076,18.1083283 40.7344985,19.7305167 42.981307,19.7305167 C44.4129179,19.7305167 45.2202128,19.3672948 45.5010638,19.2113678 L45.5475684,19.1855319 L45.162766,18.5192705 Z" id="Fill-5" fill="#4D4D4D"></path>
                <path d="M52.8448328,18.9201824 C49.9481763,18.9201824 48.218693,17.0922188 48.218693,14.0305167 C48.218693,10.8551368 49.9974164,8.9593921 52.9767477,8.9593921 C53.8031915,8.9593921 54.5797872,9.11531915 55.1776596,9.39647416 L55.5968085,8.6706383 L55.5618541,8.65148936 C55.3475684,8.53355623 54.5262918,8.14905775 52.9603343,8.14905775 C49.5509119,8.14905775 47.2603343,10.5058967 47.2603343,14.0141033 C47.2603343,18.2332523 50.1268997,19.7305167 52.5816109,19.7305167 C53.9773556,19.7305167 55.0606383,19.4375076 55.6089666,19.1630395 L55.6506079,19.1423708 L55.2490881,18.4469301 C54.6059271,18.7429787 53.7159574,18.9201824 52.8448328,18.9201824" id="Fill-7" fill="#4D4D4D"></path>
                <path d="M60.684924,11.3444073 C60.0964742,11.3444073 59.5314286,11.5073252 59.053617,11.8140122 C58.6606079,12.0392401 58.3031611,12.3957751 58.0514894,12.8097568 L58.0514894,8.14927052 L57.1259574,8.14927052 L57.1259574,19.5656839 L58.0514894,19.5656839 L58.0514894,14.6726748 C58.0514894,14.35231 58.066383,14.1456231 58.1463222,13.9048936 C58.509848,12.883921 59.4654711,12.1708511 60.4709422,12.1708511 C62.303465,12.1708511 62.5773252,13.8310334 62.5773252,14.821003 L62.5773252,19.5656839 L63.5028571,19.5656839 L63.5028571,14.7386322 C63.5028571,11.5082371 61.1554407,11.3444073 60.684924,11.3444073" id="Fill-9" fill="#4D4D4D"></path>
                <path d="M75.4035562,18.8735866 C75.2415502,18.9079331 75.0151064,18.9368085 74.7044681,18.9368085 C73.9637386,18.9368085 73.6190578,18.439848 73.6190578,17.3735866 L73.6190578,12.302766 L75.8752888,12.302766 L75.8752888,11.5252584 L73.6190578,11.5252584 L73.6190578,9.74957447 L72.6932219,9.74957447 L72.6932219,11.5252584 L71.3594833,11.5252584 L71.3594833,12.302766 L72.6932219,12.302766 L72.6932219,17.2255623 C72.6932219,18.1392401 72.8603951,18.7732827 73.2017325,19.1611246 C73.5020365,19.5444073 73.9871429,19.7471429 74.6056839,19.7471429 C75.0470213,19.7471429 75.4272644,19.6784498 75.736079,19.5434954 L75.7792401,19.5246505 L75.4035562,18.8735866 Z" id="Fill-11" fill="#4D4D4D"></path>
                <path d="M85.0305775,11.5106079 C85.0305775,13.1948024 83.8968389,14.1604559 81.9196353,14.1604559 C81.5013982,14.1604559 80.9752584,14.1434347 80.5706991,14.0145593 L80.5706991,9.16075988 C80.7631003,9.12246201 81.2640122,9.04191489 82.0673556,9.04191489 C83.9506383,9.04191489 85.0305775,9.94161094 85.0305775,11.5106079 M82.1004863,8.24829787 C81.302614,8.24829787 80.4953191,8.32033435 79.7004863,8.46319149 L79.6451672,8.47322188 L79.6451672,19.5656231 L80.5706991,19.5656231 L80.5706991,14.8434347 C80.9324012,14.935228 81.3345289,14.9543769 81.8533739,14.9543769 C83.2770821,14.9543769 84.4533739,14.5072644 85.1643161,13.6969301 C85.6968389,13.1127356 85.9558055,12.3704863 85.9558055,11.4282371 C85.9558055,10.5130395 85.6521581,9.7443465 85.0792097,9.20604863 C84.4354407,8.57930091 83.4053495,8.24829787 82.1004863,8.24829787" id="Fill-13" fill="#4D4D4D"></path>
                <path d="M98.7442857,11.5253191 L96.8011246,16.6906687 C96.6217933,17.157234 96.4692097,17.6119453 96.3348632,18.0131611 C96.3023404,18.1098176 96.2713374,18.2025228 96.2412462,18.2915805 C96.0825836,17.7769909 95.8874468,17.2079939 95.7081155,16.738997 L93.6330395,11.5675684 L93.6160182,11.5253191 L92.6306079,11.5253191 L95.5993009,18.9468997 C95.6771125,19.1405167 95.6932219,19.2280547 95.6932219,19.2675684 C95.6932219,19.3399088 95.6603951,19.4359574 95.5996049,19.5873252 C95.1980851,20.5414286 94.6695137,21.1858055 94.2977812,21.557538 C93.7837994,22.0529787 93.2248328,22.3079939 92.9372948,22.4158967 L92.8825836,22.4362614 L93.3081155,23.1733435 C93.5187538,23.0934043 94.0458055,22.8620973 94.6357751,22.3651368 C95.6634347,21.4681763 96.3208815,20.0861094 97.3220973,17.5140729 L99.7309119,11.5253191 L98.7442857,11.5253191 Z" id="Fill-15" fill="#4D4D4D"></path>
                <path d="M69.6605471,16.9618541 C69.6605471,17.0797872 69.6471733,17.2539514 69.5815198,17.4177812 C69.3289362,18.1600304 68.598845,18.9530395 67.3067477,18.9530395 C66.6085714,18.9530395 65.7933739,18.5393617 65.7933739,17.3734043 C65.7933739,16.8761398 65.9581155,16.4639818 66.2827356,16.1484802 C66.8438298,15.6031915 67.8778723,15.3275076 69.3599392,15.3275076 C69.4581155,15.3275076 69.5584195,15.3287234 69.6605471,15.331155 L69.6605471,16.9618541 Z M70.7003647,19.487386 C70.5997568,18.8670213 70.5857751,18.2235562 70.5857751,17.6205167 L70.5857751,14.5244681 C70.5857751,12.443921 69.6170821,11.3445289 67.7845593,11.3445289 C66.9590274,11.3445289 66.0772644,11.6007599 65.4252888,12.0305471 L65.4219453,12.0329787 L65.798845,12.6861702 C66.3170821,12.3332827 66.9894225,12.1381459 67.7027964,12.1381459 C67.7122188,12.1381459 67.7216413,12.1378419 67.7310638,12.1378419 C68.3164742,12.1378419 68.7748328,12.2983283 69.0939818,12.6150456 C69.4751368,12.9925532 69.6605471,13.5740122 69.6605471,14.3928571 L69.6605471,14.5387538 C67.7222492,14.5232523 66.3474772,14.9193009 65.5572036,15.7016717 C65.0778723,16.1761398 64.8350152,16.7828267 64.8350152,17.5056231 C64.8350152,18.5849544 65.5827356,19.7469605 67.2246809,19.7469605 C68.4198176,19.7469605 69.2912462,19.1272036 69.7410942,18.5095745 L69.8480851,19.5655015 L70.7128267,19.5655015 L70.7003647,19.487386 Z" id="Fill-17" fill="#4D4D4D"></path>
                <path d="M90.8991489,16.9618541 C90.8991489,17.0797872 90.8857751,17.2539514 90.8204255,17.4177812 C90.567538,18.1600304 89.8374468,18.9530395 88.5456535,18.9530395 C87.8474772,18.9530395 87.0319757,18.5393617 87.0319757,17.3734043 C87.0319757,16.8761398 87.1967173,16.4639818 87.5213374,16.1484802 C88.0824316,15.6031915 89.1164742,15.3275076 90.598541,15.3275076 C90.6967173,15.3275076 90.7970213,15.3287234 90.8991489,15.331155 L90.8991489,16.9618541 Z M91.9389666,19.487386 C91.8386626,18.8670213 91.8246809,18.2232523 91.8246809,17.6205167 L91.8246809,14.5244681 C91.8246809,12.443921 90.8559878,11.3445289 89.0231611,11.3445289 C88.2356231,11.3445289 87.398845,11.5797872 86.7572036,11.9746201 L87.1325836,12.624772 C87.6368389,12.3113982 88.2705775,12.1381459 88.9417021,12.1381459 C88.9511246,12.1381459 88.9605471,12.1378419 88.9699696,12.1378419 C89.555076,12.1378419 90.0134347,12.2983283 90.3328875,12.6147416 C90.7140426,12.9925532 90.8991489,13.5740122 90.8991489,14.3928571 L90.8991489,14.5387538 C88.9687538,14.5232523 87.586079,14.9193009 86.7958055,15.7016717 C86.3164742,16.1761398 86.073617,16.7828267 86.073617,17.5056231 C86.073617,18.5849544 86.8213374,19.7469605 88.4632827,19.7469605 C89.6584195,19.7469605 90.529848,19.1272036 90.979696,18.5095745 L91.0866869,19.5655015 L91.9517325,19.5655015 L91.9389666,19.487386 Z" id="Fill-19" fill="#4D4D4D"></path>
            </g>
        </g>
    </g>
</svg>